<svg id="Layer_1" data-name="Layer 1" xmlns="http://www.w3.org/2000/svg" viewBox="0 0 56.31 97.08"><defs><style>.cls-1{fill:#fee0f3;stroke:#000;stroke-miterlimit:10;stroke-width:0.35px;}</style></defs><title>logo</title><path class="cls-1" d="M74.65,77.51a72.26,72.26,0,0,0-6.65-5c-.44-.38-5-2.5-5.42-2.87s-.8-1.38-1.3-1.79a40.74,40.74,0,0,0,2.66-4.6c1.16-2.34,1.74-3.54,1.58-4.75A5.62,5.62,0,0,0,61.28,54a5.88,5.88,0,0,0-4.24.72l-.36-1.51,1.87-2.86L66.74,7.49l-.66-5L53.54,50.35H51.06L37.6,3.3l-.79,3,7.71,44.95L46.75,53V54.4a14.15,14.15,0,0,0-6.74,1c-3,1.34-5.31,4.14-6.47,5.46A40.71,40.71,0,0,0,26,74.3c-1,3-6,18.26,0,22.61,3,2.2,7.61.71,9.13-.14,8.87-5,12.79-14.87,14.05-19.11A40.08,40.08,0,0,0,51,61.56l2.77-.11a8.74,8.74,0,0,0,4.44,7.45,12.1,12.1,0,0,0-.91,4c-.08,1.67-.2,4.25,1.57,5.88a5.17,5.17,0,0,0,3.26,1.31,13.6,13.6,0,0,0-2,9.93c.29,1.33,1.16,6,5.63,7.92,2.86,1.22,6.93.32,10-2.59C78.52,92.93,79,87.14,79,86.85A12.48,12.48,0,0,0,74.65,77.51ZM47.46,72.64a42.22,42.22,0,0,1-5.32,11.69c-3.75,6.16-6.36,8-7.33,8.58-1.84,1.17-4.22,2.7-6.37,1.77-2-.85-3.16-3.53-3-6.71a45.94,45.94,0,0,1,2.92-12.4,44.41,44.41,0,0,1,5.85-10.45c3.66-5.12,5.8-6.23,7.57-6.61a5.34,5.34,0,0,1,4,.43c.77.49,1.67,1.44,2.25,4.07A19.87,19.87,0,0,1,47.46,72.64Zm4.37-14.4a2.34,2.34,0,1,1,2.34-2.33A2.33,2.33,0,0,1,51.83,58.24ZM65.33,74l4.41,2.3a9.78,9.78,0,0,0-2.4.72,9.59,9.59,0,0,0-1.53.86,8.36,8.36,0,0,1-.48-2A8.14,8.14,0,0,1,65.33,74ZM55.75,60.4c.58-1.88,2.61-4.16,4.74-3.59,1.61.43,2.85,2.37,2.66,4.67-1-1.72-2.21-2.52-2.85-2.59-1.42-.15-2.3,1-2.35,2.5,0,.84.19,1.81,2.58,3.47l-1.91,2.3C56.16,65.48,55,62.71,55.75,60.4Zm5.1,17.36a3.61,3.61,0,0,1-2.08-2.39,3.73,3.73,0,0,1,.11-3.11,5,5,0,0,1,1.18-1.68l3.5,2.88a2,2,0,0,0-2.17,1.28,2.16,2.16,0,0,0,.06,1.59,2.86,2.86,0,0,0,2.11,1.25A3.44,3.44,0,0,1,60.85,77.76ZM73,95.37a6.67,6.67,0,0,1-4.53,1.29A7.08,7.08,0,0,1,64,93.82a9.69,9.69,0,0,1-2-4.1,9.85,9.85,0,0,1,0-5.14,9.48,9.48,0,0,1,1.44-3A9.3,9.3,0,0,1,64.8,80a4,4,0,0,0,1.69,2.19,4.18,4.18,0,0,0,3.74.18,3.37,3.37,0,0,0,2.08-3.12,8.64,8.64,0,0,1,3,2.87A9.27,9.27,0,0,1,76.59,86a10.05,10.05,0,0,1-.47,5.21A8.4,8.4,0,0,1,73,95.37Z" transform="translate(-22.88 -1.61)"/></svg>