<svg id="Layer_1" data-name="Layer 1" xmlns="http://www.w3.org/2000/svg" viewBox="0 0 12.66 12.11"><title>scissors-2</title><path d="M25.14,14.13a14.77,14.77,0,0,0-2.53,1.67,25.75,25.75,0,0,0-3.11,3.27l-1.1,1.25h-.21l-.26,0a3.6,3.6,0,0,0-1.63.78,2.93,2.93,0,0,0-1,1.51,2,2,0,0,0,.17,1.68A1.87,1.87,0,0,0,17,25a2.39,2.39,0,0,0,1.51-.84,3.11,3.11,0,0,0,1.1-1.72,2.8,2.8,0,0,0,0-1s2.3-2.16,3.71-3.6C25.09,16,27.74,13,27.83,12.88A26.7,26.7,0,0,0,25.14,14.13Zm-6.46,8.13A2.44,2.44,0,0,1,17.4,24a.92.92,0,0,1-1.34-.35,1.72,1.72,0,0,1,.49-1.6,1.73,1.73,0,0,1,1.36-.76C18.47,21.29,18.73,21.65,18.68,22.26Zm2.16-2.51a.83.83,0,1,1,.82-.83A.83.83,0,0,1,20.84,19.75Zm0-1.31a.48.48,0,0,0-.47.48.47.47,0,0,0,.47.48.48.48,0,0,0,.48-.48A.49.49,0,0,0,20.83,18.44Z" transform="translate(-15.17 -12.88)"/></svg>