<svg id="Layer_2" data-name="Layer 2" xmlns="http://www.w3.org/2000/svg" viewBox="0 0 12.63 12.14"><title>scissors-1</title><path d="M23.22,20c-1.41-1.44-3.69-3.61-3.69-3.61a2.8,2.8,0,0,0,0-1,3.11,3.11,0,0,0-1.1-1.72,2.39,2.39,0,0,0-1.51-.84,1.82,1.82,0,0,0-1.51.67,2,2,0,0,0-.17,1.68,2.93,2.93,0,0,0,1,1.51,3.55,3.55,0,0,0,1.63.78l.26,0a.74.74,0,0,0,.21,0l1.09,1.26a27.12,27.12,0,0,0,3.11,3.28,15.79,15.79,0,0,0,2.52,1.68c1,.57,2.69,1.26,2.69,1.26S25.05,21.92,23.22,20Zm-5.36-3.48a1.71,1.71,0,0,1-1.35-.76,1.75,1.75,0,0,1-.5-1.59.93.93,0,0,1,1.35-.35,2.44,2.44,0,0,1,1.28,1.73C18.69,16.2,18.42,16.56,17.86,16.56Z" transform="translate(-15.13 -12.86)"/></svg>